<?xml version="1.0" encoding="UTF-8" standalone="no"?>
<!-- Generator: Adobe Illustrator 16.0.0, SVG Export Plug-In . SVG Version: 6.00 Build 0)  -->

<svg
   xmlns:dc="http://purl.org/dc/elements/1.1/"
   xmlns:cc="http://creativecommons.org/ns#"
   xmlns:rdf="http://www.w3.org/1999/02/22-rdf-syntax-ns#"
   xmlns:svg="http://www.w3.org/2000/svg"
   xmlns="http://www.w3.org/2000/svg"
   xmlns:sodipodi="http://sodipodi.sourceforge.net/DTD/sodipodi-0.dtd"
   xmlns:inkscape="http://www.inkscape.org/namespaces/inkscape"
   version="1.1"
   id="Capa_1"
   x="0px"
   y="0px"
   width="427"
   height="427"
   viewBox="0 0 427 427.00001"
   xml:space="preserve"
   inkscape:version="0.48.5 r10040"
   sodipodi:docname="ic_outgoing_call_dark.svg"><metadata
   id="metadata3105"><rdf:RDF><cc:Work
       rdf:about=""><dc:format>image/svg+xml</dc:format><dc:type
         rdf:resource="http://purl.org/dc/dcmitype/StillImage" /><dc:title /></cc:Work></rdf:RDF></metadata><defs
   id="defs3103" /><sodipodi:namedview
   pagecolor="#ffffff"
   bordercolor="#666666"
   borderopacity="1"
   objecttolerance="10"
   gridtolerance="10"
   guidetolerance="10"
   inkscape:pageopacity="0"
   inkscape:pageshadow="2"
   inkscape:window-width="1852"
   inkscape:window-height="1060"
   id="namedview3101"
   showgrid="false"
   inkscape:zoom="0.66349165"
   inkscape:cx="-385.08397"
   inkscape:cy="177.847"
   inkscape:window-x="-4"
   inkscape:window-y="-4"
   inkscape:window-maximized="1"
   inkscape:current-layer="Capa_1"
   width="427px" />
<g
   id="g3059"
   style="fill:#ffffff;fill-opacity:0.8"
   transform="translate(35.655001,35.651026)">
	<g
   id="g3061"
   style="fill:#ffffff;fill-opacity:0.8">
		<g
   id="g3063"
   style="fill:#ffffff;fill-opacity:0.8">
			<path
   d="m 345.923,287.653 -55.22,-55.25 c -4.3,-4.293 -10.299,-6.652 -16.874,-6.652 -6.924,0 -13.606,2.695 -18.326,7.416 l -29.844,29.855 -8.077,-4.479 c -17.75,-9.849 -42.045,-23.329 -67.716,-49.035 -25.772,-25.737 -39.268,-50.099 -49.137,-67.912 l -4.414,-7.839 29.901,-29.897 c 9.893,-9.917 10.232,-25.707 0.75,-35.212 L 71.732,13.421 C 67.427,9.131 61.443,6.762 54.877,6.762 47.948,6.762 41.27,9.47 36.553,14.205 l -13.571,13.643 -1.279,2.083 c -5.041,6.476 -9.175,13.757 -12.274,21.683 -2.87,7.563 -4.66,14.745 -5.476,21.945 -7.116,59.195 20.173,113.527 94.218,187.559 87.77,87.748 161.109,94.576 181.495,94.576 3.482,0 5.603,-0.187 6.197,-0.252 7.529,-0.907 14.735,-2.721 22.014,-5.543 7.848,-3.062 15.102,-7.17 21.557,-12.214 l 3.087,-2.426 12.688,-12.454 c 9.877,-9.889 10.201,-25.663 0.714,-35.152 z"
   id="path3065"
   style="fill:#ffffff;fill-opacity:0.8"
   inkscape:connector-curvature="0" />
		</g>
		<g
   id="g3067"
   style="fill:#ffffff;fill-opacity:0.8">
			<path
   d="m 226.283,155.849 c 2.246,2.252 4.51,3.408 6.726,3.432 1.711,0.018 3.326,-0.646 4.569,-1.895 0.312,-0.318 0.528,-0.594 0.696,-0.816 l 69.896,-69.89 21.119,21.109 c 4.594,4.594 7.619,2.564 8.707,1.462 2.396,-2.39 2.449,-7.371 2.396,-8.497 l 8.545,-90.469 C 348.96,9.823 349.219,5.674 346.481,2.716 345.347,1.469 343.257,0 339.696,0 c -9.771,0.006 -87.832,10.968 -90.757,11.406 -0.931,0 -5.74,0.111 -8.196,2.57 -1.531,1.537 -3.309,4.93 2.102,10.331 l 19.348,19.354 -69.188,69.175 c -1.682,1.693 -3.675,6.059 0.811,10.553 l 32.467,32.46 z"
   id="path3069"
   style="fill:#ffffff;fill-opacity:0.8"
   inkscape:connector-curvature="0" />
		</g>
	</g>
</g>
<g
   id="g3071"
   style="fill:#ffffff;fill-opacity:0.8"
   transform="translate(35.655001,35.651026)">
</g>
<g
   id="g3073"
   style="fill:#ffffff;fill-opacity:0.8"
   transform="translate(35.655001,35.651026)">
</g>
<g
   id="g3075"
   style="fill:#ffffff;fill-opacity:0.8"
   transform="translate(35.655001,35.651026)">
</g>
<g
   id="g3077"
   style="fill:#ffffff;fill-opacity:0.8"
   transform="translate(35.655001,35.651026)">
</g>
<g
   id="g3079"
   style="fill:#ffffff;fill-opacity:0.8"
   transform="translate(35.655001,35.651026)">
</g>
<g
   id="g3081"
   style="fill:#ffffff;fill-opacity:0.8"
   transform="translate(35.655001,35.651026)">
</g>
<g
   id="g3083"
   style="fill:#ffffff;fill-opacity:0.8"
   transform="translate(35.655001,35.651026)">
</g>
<g
   id="g3085"
   style="fill:#ffffff;fill-opacity:0.8"
   transform="translate(35.655001,35.651026)">
</g>
<g
   id="g3087"
   style="fill:#ffffff;fill-opacity:0.8"
   transform="translate(35.655001,35.651026)">
</g>
<g
   id="g3089"
   style="fill:#ffffff;fill-opacity:0.8"
   transform="translate(35.655001,35.651026)">
</g>
<g
   id="g3091"
   style="fill:#ffffff;fill-opacity:0.8"
   transform="translate(35.655001,35.651026)">
</g>
<g
   id="g3093"
   style="fill:#ffffff;fill-opacity:0.8"
   transform="translate(35.655001,35.651026)">
</g>
<g
   id="g3095"
   style="fill:#ffffff;fill-opacity:0.8"
   transform="translate(35.655001,35.651026)">
</g>
<g
   id="g3097"
   style="fill:#ffffff;fill-opacity:0.8"
   transform="translate(35.655001,35.651026)">
</g>
<g
   id="g3099"
   style="fill:#ffffff;fill-opacity:0.8"
   transform="translate(35.655001,35.651026)">
</g>
</svg>