<svg xmlns="http://www.w3.org/2000/svg" xmlns:svg="http://www.w3.org/2000/svg" style="enable-background:new 0 0 224.469 224.469" id="Capa_1" width="100%" height="100%" x="0" y="0" version="1.1" viewBox="0 0 224.469 224.469" xml:space="preserve"><metadata id="metadata3061"/><path id="path3025" d="M 4.7966495,86.621857 64.058489,52.225204 83.969699,32.313987 c 2.88234,-2.882334 7.55586,-2.882334 10.4382,0 l 20.801931,20.801942 c 1.76685,1.76684 2.44534,4.205899 2.04588,6.492562 l 19.66559,14.273891 c 0.80583,0.584539 1.48223,1.323564 1.993,2.175321 0.19485,0.325671 19.65444,32.653477 31.98334,44.982377 10.50014,10.50014 32.28814,28.24786 41.59066,35.82599 2.21499,1.80441 3.86562,3.14886 4.7125,3.86075 2.74803,2.30544 4.69928,5.36175 5.93725,9.14247 2.10434,6.43411 -0.94431,13.51469 -7.08893,16.47078 l -13.56827,6.52458 c -5.25111,2.52604 -11.5516,1.44881 -15.67957,-2.67915 -1.29016,-1.29016 -2.30057,-2.80438 -3.00133,-4.50025 -1.60887,-3.88997 -2.78352,-5.18012 -3.00272,-5.39934 -0.75851,-0.75851 -4.0194,-3.43207 -7.17313,-6.01658 -8.39858,-6.88433 -22.45605,-18.40601 -33.54211,-29.49207 -4.45016,-4.45017 -8.12579,-8.53639 -10.92532,-12.1459 -11.05406,-14.25371 -24.50124,-31.42525 -30.426671,-37.744534 -0.78007,-0.831578 -1.54275,-1.638799 -2.28386,-2.417488 l -21.81723,55.755302 c -1.41822,3.62276 -5.40421,5.52389 -9.11116,4.34437 -0.82462,-0.26234 -20.40947,-6.63521 -38.4258,-24.65154 C 15.386559,116.21207 2.9205495,97.925732 2.3951695,97.15261 c -1.15099,-1.693772 -1.54625003,-3.789762 -1.09045,-5.787635 0.4558,-1.996478 1.72021,-3.714607 3.49193,-4.743118 z"/></svg>