<svg xmlns="http://www.w3.org/2000/svg" xmlns:svg="http://www.w3.org/2000/svg" xmlns:xlink="http://www.w3.org/1999/xlink" id="Слой_1" width="90" height="90" x="0" y="0" enable-background="new 0 0 90 90" version="1.1" viewBox="0 0 90 90" xml:space="preserve"><metadata id="metadata23"/><path id="path3" fill="#31B7DA" d="M90,68.472c0,2.761-1.754,5.881-5,7.117s-31.5,12.39-35.333,13.528s-5.343,1.217-8.501,0 C38.008,87.9,7.701,76.954,5.057,75.588s-5-4.355-5-7.117V5c0-2.761,2.239-5,5-5H85c2.761,0,5,2.239,5,5V68.472z"/><g id="g11"><defs id="defs13"><rect id="SVGID_1_" width="90" height="90" x="0" y="0"/></defs><clipPath id="SVGID_2_"><use id="use17" overflow="visible" xlink:href="#SVGID_1_"/></clipPath></g><g id="g4151" transform="translate(0.63010505,-27.094516)"><path id="rect4140" d="m 10.433669,33.563472 26.658161,0 c 2.982783,0 5.384085,2.666258 5.384085,5.978156 l 0,14.479748 c 0,1.993783 0.915039,8.479366 2.302013,15.235273 -3.618647,-4.848645 -6.498968,-9.257117 -7.686098,-9.257117 l -26.658161,0 c -2.9827828,0 -5.3840848,-2.666257 -5.3840848,-5.978156 l 0,-14.479748 c 0,-3.311898 2.401302,-5.978156 5.3840848,-5.978156 z" style="fill:#fff;fill-opacity:1;stroke:none;stroke-width:3;stroke-linecap:butt;stroke-linejoin:miter;stroke-miterlimit:4;stroke-dasharray:none;stroke-opacity:1"/><text id="text4147" x="13.249" y="67.615" transform="scale(1.194962,0.83684668)" xml:space="preserve" style="font-style:normal;font-weight:400;font-size:30.93833351px;line-height:125%;font-family:Sans;letter-spacing:0;word-spacing:0;fill:#31b7da;fill-opacity:1;stroke:none;stroke-width:1px;stroke-linecap:butt;stroke-linejoin:miter;stroke-opacity:1"><tspan id="tspan4149" x="13.249" y="67.615">!</tspan></text></g><g id="g4144"><ellipse id="path4158" cx="43.57" cy="50.723" rx="18.039" ry="5.606" style="fill:#31b7da;fill-opacity:1;stroke:#fff;stroke-width:3.12994289;stroke-linecap:butt;stroke-linejoin:miter;stroke-miterlimit:4;stroke-dasharray:none;stroke-opacity:1"/><path id="path4162" d="m 24.103063,51.502076 c 0,0 0.09321,6.33999 -0.42007,9.451575 -0.367829,2.229844 -1.015503,4.427289 -1.890315,6.511085 -0.497503,1.185049 -1.065162,2.37518 -1.890315,3.36056 -0.989898,1.182115 -3.570596,2.940491 -3.570596,2.940491 0,0 5.664556,-0.96596 7.981331,-2.520421 1.362212,-0.913989 3.150525,-3.78063 3.150525,-3.78063 0,0 0.543106,-1.828797 2.433421,-2.458902 1.890315,-0.630105 2.781418,-0.579142 3.621558,1.731243 0.84014,2.310385 -1.303756,2.751612 -2.435607,3.839962 -1.302959,1.252881 -2.197995,2.032508 -2.533161,4.794769 -0.408726,3.368513 -0.6534,7.958035 -0.6534,7.958035 l 3.767889,-8.093811 c 0,0 3.150525,-4.620771 6.30105,-6.511086 3.150525,-1.890315 2.367531,2.938679 4.629139,6.068095 -0.49299,-2.881185 0.255419,-5.758091 1.747418,-6.685528 3.929406,-2.442547 5.274973,-0.910349 4.821188,-0.0065 -0.620949,1.236818 -1.645948,4.910045 -1.782206,6.326534 -0.200099,2.080148 0.03604,5.121387 0.837954,6.097572 1.852177,2.254679 5.919202,3.322338 5.919202,3.322338 0,0 -3.053393,-1.598966 -4.164663,-3.778444 -0.710619,-1.393701 -0.40733,-3.32671 1.062915,-6.68727 1.470245,-3.360561 1.314121,-4.560177 3.035859,-5.991276 1.35337,-1.124913 3.341378,-1.833894 5.066322,-1.485171 1.88545,0.381172 0.978963,2.508607 4.472253,3.647039 3.521817,1.147729 -2.997383,2.522936 3.91422,4.434032 1.603971,0.443507 6.04661,1.964573 8.2467,2.29983 -2.626718,-2.783604 -4.590785,-2.993528 -5.995647,-4.597474 -1.34038,-1.530329 -2.26093,-3.281162 -2.929935,-5.609429 -0.844824,-2.94015 -0.4559,-3.711047 -1.60165,-6.557676 -1.091689,-2.712316 -2.074868,-9.069727 -2.074868,-9.069727 0,0 -4.150516,3.828693 -6.72112,4.830805 -2.686498,1.047292 -8.380451,1.256783 -12.602101,1.26021 -4.29132,0.0035 -8.710829,0.0026 -12.812135,-1.26021 -2.515201,-0.774451 -6.931155,-3.78063 -6.931155,-3.78063 z" style="fill:#fff;fill-rule:evenodd;stroke:none;stroke-width:1px;stroke-linecap:butt;stroke-linejoin:miter;stroke-opacity:1"/></g></svg>