<?xml version="1.0" encoding="iso-8859-1"?>
<!-- Generator: Adobe Illustrator 18.1.1, SVG Export Plug-In . SVG Version: 6.00 Build 0)  -->
<svg version="1.1" id="Capa_1" xmlns="http://www.w3.org/2000/svg" xmlns:xlink="http://www.w3.org/1999/xlink" x="0px" y="0px"
	 viewBox="0 0 18 18" style="enable-background:new 0 0 18 18;" xml:space="preserve">
<g>
	<path style="fill:#010002;" d="M0,9c0-4.973,4.027-9,9-9c4.971,0,8.998,4.027,9,9c-0.002,4.971-4.029,8.998-9,9
		C4.027,17.998,0,13.971,0,9z M2.116,9C2.124,12.799,5.199,15.874,9,15.883c3.799-0.009,6.874-3.084,6.883-6.883
		C15.874,5.199,12.799,2.124,9,2.115C5.199,2.124,2.124,5.199,2.116,9z"/>
	<path style="fill:#010002;" d="M8,13H5v-3L8,13z M14,7l-5,5L6,8.999l5-5L14,7z"/>
</g>
<g>
</g>
<g>
</g>
<g>
</g>
<g>
</g>
<g>
</g>
<g>
</g>
<g>
</g>
<g>
</g>
<g>
</g>
<g>
</g>
<g>
</g>
<g>
</g>
<g>
</g>
<g>
</g>
<g>
</g>
</svg>
