<svg xmlns="http://www.w3.org/2000/svg" xmlns:svg="http://www.w3.org/2000/svg" style="enable-background:new 0 0 18 18" id="Capa_1" width="100%" height="100%" x="0" y="0" version="1.1" viewBox="0 0 18 18" xml:space="preserve"><metadata id="metadata7347"/><g id="g7305" style="fill:#343434;fill-opacity:.60000002"><g id="g7307" style="fill:#343434;fill-opacity:.60000002"><path style="fill:#343434;fill-opacity:.60000002" id="path7309" d="M9,0C4.027,0,0,4.027,0,9c0,4.971,4.027,8.998,9,9c4.971-0.002,8.998-4.029,9-9 C17.998,4.027,13.971,0,9,0z M9,15.883C5.199,15.874,2.124,12.799,2.116,9C2.124,5.199,5.199,2.124,9,2.115 C12.799,2.124,15.874,5.199,15.883,9C15.874,12.799,12.799,15.874,9,15.883z"/><polygon style="fill:#343434;fill-opacity:.60000002" id="polygon7311" points="11 5 9 7 7 5 5 7 7 9 5 11 7 13 9 11 11 13 13 11 11 9 13 7"/></g></g></svg>