<svg xmlns="http://www.w3.org/2000/svg" xmlns:svg="http://www.w3.org/2000/svg" style="enable-background:new 0 0 18 18" id="Capa_1" width="100%" height="100%" x="0" y="0" version="1.1" viewBox="0 0 18 18" xml:space="preserve"><metadata id="metadata7945"/><g id="g7903" style="fill:#fff;fill-opacity:.80000001"><g id="g7905" style="fill:#fff;fill-opacity:.80000001"><path style="fill:#fff;fill-opacity:.80000001" id="path7907" d="M9,0C4.027,0,0,4.027,0,9c0,4.971,4.027,8.998,9,9c4.971-0.002,8.998-4.029,9-9 C17.998,4.027,13.971,0,9,0z M9,15.883C5.199,15.874,2.124,12.799,2.115,9C2.124,5.199,5.199,2.124,9,2.116 C12.799,2.124,15.874,5.199,15.883,9C15.874,12.799,12.799,15.874,9,15.883z"/><polygon style="fill:#fff;fill-opacity:.80000001" id="polygon7909" points="8 13 12 9 8 5"/></g></g></svg>